<svg width="168" height="80" viewBox="0 0 168 80" fill="none" xmlns="http://www.w3.org/2000/svg">
<path opacity="0.991293" d="M49.8555 15.502H74.1888V23.544H49.8555V31.5835H83.0614V18.7528C82.9655 17.0594 82.3825 12.117 78.8935 7.42987L49.8909 7.48188C49.8627 10.1563 49.8603 12.8301 49.8555 15.502Z" fill="#B9D600"/>
<path opacity="0.991293" d="M41.5898 47.7713H24.9571V80.0001H41.618C41.618 73.3449 41.5874 52.1536 41.5874 47.7713H41.5898ZM0.160156 47.7713V61.1166C0.590802 70.4153 7.55432 78.0061 16.7149 79.662V47.7713H0.160156Z" fill="#BC5FD3"/>
<path opacity="0.991293" d="M25.4555 0.00241784L25.5941 0.0139072C34.4997 2.05024 41.2095 9.51096 41.7157 18.5568H41.7834V0L25.4555 0.00241784ZM3.76063 7.5478C1.9025 9.87988 0.590189 12.6317 0 15.6369H9.09995C12.6117 15.6369 29.2275 15.6393 32.4514 15.6393C30.7672 10.7326 25.84 7.58348 20.6974 7.58106C20.5145 7.58348 20.3339 7.59014 20.1516 7.59739V7.5478H3.76063ZM8.83483 23.6576C10.597 28.4748 15.3413 32.0491 20.6974 32.054C26.0577 32.054 30.8116 28.479 32.5737 23.6576H8.83483ZM0.0395733 23.7121V39.687H15.1728C7.02169 37.8842 1.51325 31.4183 0.0395733 23.7121ZM33.3679 36.1551C30.9777 37.8346 28.1311 39.0514 24.9097 39.687H33.3679V36.1551Z" fill="#5FBCD5" fill-opacity="0.992157"/>
<path opacity="0.991293" d="M61.8093 47.7713C55.2608 48.0973 50.0547 53.3656 50.0547 59.8175C50.0547 66.4799 55.6051 71.8801 62.4511 71.8801C67.6872 71.8729 72.3547 68.6675 74.1139 63.8666H58.3437V55.7703C65.9112 55.7703 82.701 55.7703 83.1551 55.7703V47.7713H61.8093ZM83.1551 63.6072C81.6064 72.1281 74.1583 78.788 65.3001 79.9789H83.1551V63.6072Z" fill="#F6A045" fill-opacity="0.996078"/>
<path opacity="0.991293" d="M98.0696 11.0961L96.5983 6.67143H96.5677L95.0796 11.0961H98.0696ZM99.9319 16.053L98.6502 12.6437H94.4847L93.2005 16.053H91.418L95.8156 4.48148H97.3336L101.734 16.053H99.9319Z" fill="#1A1A1A" fill-opacity="0.992157"/>
<path opacity="0.991293" d="M105.875 10.4206C105.83 10.1067 105.718 9.87506 105.545 9.7287C105.378 9.57025 105.16 9.49223 104.893 9.49223C104.624 9.49223 104.408 9.57025 104.242 9.7287C104.076 9.87506 103.991 10.0686 103.991 10.3093C103.991 10.4653 104.024 10.6002 104.089 10.7115C104.152 10.8131 104.242 10.9002 104.352 10.9734C104.462 11.0465 104.586 11.1131 104.727 11.1669C104.875 11.2147 105.027 11.2594 105.183 11.3066C105.331 11.3514 105.535 11.4197 105.793 11.5122C106.051 11.6066 106.306 11.7481 106.554 11.9422C106.814 12.1261 107.034 12.3722 107.22 12.6771C107.404 12.9722 107.496 13.3454 107.496 13.7965C107.496 14.1394 107.437 14.4558 107.318 14.7509C107.205 15.0466 107.039 15.3061 106.819 15.5262C106.597 15.7482 106.325 15.923 106.002 16.053C105.687 16.1824 105.327 16.2465 104.919 16.2465C104.68 16.2465 104.403 16.2042 104.089 16.1213C103.776 16.0385 103.478 15.897 103.202 15.6938C102.925 15.4809 102.688 15.1997 102.494 14.8477C102.302 14.4981 102.203 14.059 102.203 13.5346H103.644C103.673 13.9665 103.792 14.3094 104.005 14.5574C104.228 14.8077 104.542 14.9305 104.947 14.9305C105.27 14.9305 105.535 14.8386 105.736 14.6541C105.95 14.4606 106.055 14.2029 106.055 13.8794C106.055 13.7137 106.02 13.5697 105.945 13.4518C105.879 13.3314 105.788 13.2298 105.669 13.147C105.549 13.0551 105.404 12.9746 105.237 12.9105C105.071 12.8373 104.898 12.769 104.713 12.7031C104.5 12.6293 104.268 12.547 104.019 12.4545C103.771 12.3529 103.534 12.2186 103.312 12.0529C103.101 11.8781 102.92 11.661 102.773 11.4034C102.625 11.1342 102.55 10.7986 102.55 10.3922C102.55 10.1067 102.606 9.83454 102.717 9.57509C102.836 9.30777 102.998 9.0719 103.202 8.87111C103.415 8.65822 103.668 8.49069 103.963 8.37215C104.268 8.24272 104.6 8.17862 104.961 8.17862C105.183 8.17862 105.428 8.21431 105.697 8.2899C105.964 8.36308 106.212 8.48827 106.444 8.66305C106.683 8.83784 106.887 9.06947 107.053 9.35493C107.22 9.641 107.309 9.99541 107.318 10.4206H105.875Z" fill="#1A1A1A" fill-opacity="0.992157"/>
<path opacity="0.991293" d="M115.179 12.1926C115.179 11.8497 115.113 11.5171 114.984 11.1953C114.855 10.8718 114.67 10.5863 114.429 10.3377C114.199 10.0783 113.918 9.87506 113.585 9.7287C113.253 9.57025 112.882 9.49223 112.475 9.49223C112.069 9.49223 111.699 9.57025 111.366 9.7287C111.033 9.87506 110.748 10.0783 110.509 10.3377C110.277 10.5863 110.097 10.8766 109.968 11.2098C109.839 11.531 109.773 11.8642 109.773 12.2041C109.773 12.5561 109.839 12.8918 109.968 13.2153C110.097 13.5389 110.281 13.8298 110.523 14.0874C110.762 14.3445 111.043 14.5525 111.366 14.711C111.699 14.8573 112.069 14.9305 112.475 14.9305C112.863 14.9305 113.22 14.8573 113.543 14.711C113.876 14.5622 114.161 14.3638 114.403 14.1153C114.651 13.8558 114.841 13.5607 114.97 13.2298C115.108 12.8966 115.179 12.5519 115.179 12.1926ZM116.619 12.1926C116.619 12.6625 116.521 13.1373 116.328 13.6169C116.144 14.0965 115.874 14.5313 115.525 14.919C115.174 15.3061 114.738 15.623 114.223 15.8734C113.704 16.1213 113.121 16.2465 112.475 16.2465C111.83 16.2465 111.247 16.1262 110.729 15.8873C110.223 15.6369 109.787 15.3182 109.427 14.9305C109.078 14.5428 108.803 14.111 108.611 13.6314C108.426 13.1421 108.332 12.6535 108.332 12.1642C108.332 11.6374 108.435 11.1342 108.637 10.6546C108.85 10.175 109.141 9.7547 109.511 9.39546C109.881 9.02653 110.314 8.7314 110.813 8.50944C111.322 8.2899 111.875 8.17862 112.475 8.17862C113.058 8.17862 113.599 8.28506 114.096 8.49492C114.604 8.70781 115.045 8.99871 115.412 9.36703C115.792 9.7287 116.087 10.1515 116.301 10.6401C116.511 11.1294 116.619 11.6465 116.619 12.1926Z" fill="#1A1A1A" fill-opacity="0.992157"/>
<path opacity="0.991293" d="M123.8 10.931C123.744 10.8131 123.662 10.6685 123.552 10.5034C123.449 10.3377 123.311 10.1799 123.135 10.0329C122.968 9.88413 122.763 9.75894 122.512 9.65733C122.273 9.54907 121.98 9.49223 121.64 9.49223C121.176 9.49223 120.785 9.57932 120.462 9.75471C120.139 9.93191 119.873 10.1515 119.672 10.4206C119.478 10.6782 119.335 10.9685 119.241 11.2927C119.159 11.6138 119.117 11.9187 119.117 12.2041C119.117 12.5374 119.168 12.8706 119.269 13.2014C119.382 13.525 119.539 13.8153 119.74 14.0729C119.953 14.3233 120.211 14.5314 120.516 14.6965C120.832 14.8525 121.195 14.9305 121.612 14.9305C122.156 14.9305 122.608 14.7981 122.968 14.5314C123.329 14.2525 123.601 13.9169 123.786 13.5201H125.393C125.246 13.9453 125.047 14.3281 124.798 14.6686C124.548 15.0013 124.257 15.2873 123.924 15.5262C123.591 15.7573 123.229 15.932 122.83 16.053C122.441 16.1824 122.036 16.2465 121.612 16.2465C120.984 16.2465 120.424 16.131 119.935 15.9018C119.445 15.6605 119.035 15.3509 118.702 14.9729C118.369 14.5858 118.114 14.1509 117.938 13.6713C117.765 13.1917 117.676 12.7031 117.676 12.2041C117.676 11.6894 117.769 11.1911 117.952 10.7115C118.138 10.2222 118.402 9.79221 118.742 9.42389C119.084 9.04589 119.496 8.74591 119.977 8.52335C120.467 8.29232 121.015 8.17862 121.626 8.17862C122.169 8.17862 122.659 8.27055 123.092 8.45501C123.529 8.62979 123.901 8.85659 124.215 9.13298C124.531 9.4003 124.784 9.69544 124.979 10.019C125.18 10.3401 125.321 10.645 125.393 10.931H123.8Z" fill="#1A1A1A" fill-opacity="0.992157"/>
<path opacity="0.991293" d="M128.211 7.49976H126.77V5.81058H128.211V7.49976ZM128.211 16.0521H126.77V8.38578H128.211V16.0521Z" fill="#1A1A1A" fill-opacity="0.992157"/>
<path opacity="0.991293" d="M136.405 12.2325C136.405 11.8261 136.335 11.4578 136.196 11.1246C136.058 10.7847 135.869 10.4938 135.63 10.2531C135.388 10.0142 135.107 9.8303 134.784 9.70027C134.461 9.56056 134.114 9.49223 133.744 9.49223C133.301 9.49223 132.912 9.57932 132.581 9.75471C132.258 9.92224 131.984 10.1393 131.764 10.4067C131.541 10.6734 131.375 10.9685 131.265 11.2927C131.162 11.6138 131.113 11.9277 131.113 12.2325C131.113 12.5845 131.176 12.9202 131.304 13.2438C131.436 13.5649 131.616 13.851 131.846 14.1013C132.078 14.3493 132.354 14.5525 132.677 14.711C133.001 14.8573 133.352 14.9305 133.729 14.9305C134.109 14.9305 134.461 14.8622 134.784 14.7249C135.107 14.5761 135.388 14.3826 135.63 14.1437C135.869 13.8933 136.058 13.6078 136.196 13.2837C136.335 12.9535 136.405 12.6015 136.405 12.2325ZM136.377 16.053V14.8622H136.349C136.072 15.3321 135.697 15.6841 135.226 15.9133C134.765 16.1353 134.271 16.2465 133.744 16.2465C133.097 16.2465 132.521 16.1353 132.012 15.9133C131.504 15.6841 131.075 15.3841 130.723 15.0158C130.381 14.6354 130.119 14.2078 129.934 13.7282C129.758 13.2486 129.672 12.7545 129.672 12.247C129.672 11.7765 129.753 11.3018 129.92 10.8222C130.086 10.3401 130.337 9.90772 130.668 9.52065C131.009 9.12391 131.436 8.79974 131.944 8.55178C132.45 8.30139 133.052 8.17862 133.744 8.17862C134.28 8.17862 134.779 8.2899 135.241 8.50944C135.702 8.72233 136.072 9.04105 136.349 9.4638H136.377V8.38666H137.818V16.053H136.377Z" fill="#1A1A1A" fill-opacity="0.992157"/>
<path opacity="0.991293" d="M145.394 10.931C145.338 10.8131 145.256 10.6685 145.143 10.5034C145.042 10.3377 144.905 10.1799 144.729 10.0329C144.563 9.88413 144.354 9.75894 144.106 9.65733C143.864 9.54907 143.574 9.49223 143.232 9.49223C142.77 9.49223 142.379 9.57932 142.056 9.75471C141.732 9.93191 141.467 10.1515 141.266 10.4206C141.071 10.6782 140.929 10.9685 140.835 11.2927C140.753 11.6138 140.711 11.9187 140.711 12.2041C140.711 12.5374 140.762 12.8706 140.863 13.2014C140.973 13.525 141.13 13.8153 141.334 14.0729C141.547 14.3233 141.805 14.5314 142.11 14.6965C142.423 14.8525 142.789 14.9305 143.206 14.9305C143.749 14.9305 144.202 14.7981 144.563 14.5314C144.923 14.2525 145.195 13.9169 145.38 13.5201H146.988C146.839 13.9453 146.64 14.3281 146.392 14.6686C146.141 15.0013 145.851 15.2873 145.518 15.5262C145.186 15.7573 144.82 15.932 144.424 16.053C144.035 16.1824 143.63 16.2465 143.206 16.2465C142.576 16.2465 142.018 16.131 141.528 15.9018C141.039 15.6605 140.629 15.3509 140.296 14.9729C139.963 14.5858 139.708 14.1509 139.532 13.6713C139.356 13.1917 139.27 12.7031 139.27 12.2041C139.27 11.6894 139.361 11.1911 139.546 10.7115C139.731 10.2222 139.993 9.79221 140.336 9.42389C140.678 9.04589 141.09 8.74591 141.57 8.52335C142.06 8.29232 142.609 8.17862 143.217 8.17862C143.764 8.17862 144.253 8.27055 144.687 8.45501C145.122 8.62979 145.495 8.85659 145.809 9.13298C146.123 9.4003 146.378 9.69544 146.573 10.019C146.774 10.3401 146.913 10.645 146.988 10.931H145.394Z" fill="#1A1A1A" fill-opacity="0.992157"/>
<path opacity="0.991293" d="M149.799 7.49976H148.355V5.81058H149.799V7.49976ZM149.799 16.0521H148.355V8.38578H149.799V16.0521Z" fill="#1A1A1A" fill-opacity="0.992157"/>
<path opacity="0.991293" d="M153.827 6.55757L156.917 4.78613L157.527 5.90803L154.41 7.59721L153.827 6.55757ZM158.096 12.1924C158.096 11.8495 158.031 11.5169 157.902 11.1951C157.773 10.8716 157.587 10.5861 157.349 10.3375C157.116 10.0781 156.835 9.87486 156.503 9.7285C156.17 9.57005 155.8 9.49202 155.394 9.49202C154.987 9.49202 154.619 9.57005 154.286 9.7285C153.954 9.87486 153.665 10.0781 153.427 10.3375C153.194 10.5861 153.016 10.8764 152.885 11.2096C152.757 11.5308 152.693 11.864 152.693 12.2039C152.693 12.5559 152.757 12.8916 152.885 13.2151C153.016 13.5387 153.199 13.8296 153.44 14.0872C153.68 14.3443 153.963 14.5523 154.286 14.7108C154.619 14.8571 154.987 14.9303 155.394 14.9303C155.781 14.9303 156.137 14.8571 156.46 14.7108C156.793 14.562 157.079 14.3636 157.32 14.1151C157.569 13.8556 157.758 13.5605 157.887 13.2296C158.026 12.8964 158.096 12.5517 158.096 12.1924ZM159.537 12.1924C159.537 12.6623 159.441 13.1371 159.246 13.6167C159.061 14.0963 158.794 14.5311 158.443 14.9188C158.091 15.3059 157.657 15.6228 157.14 15.8732C156.622 16.1211 156.041 16.2463 155.394 16.2463C154.748 16.2463 154.164 16.126 153.649 15.8871C153.141 15.6367 152.705 15.318 152.346 14.9303C151.995 14.5426 151.723 14.1108 151.529 13.6312C151.344 13.1419 151.25 12.6533 151.25 12.164C151.25 11.6372 151.353 11.134 151.557 10.6544C151.768 10.1748 152.058 9.7545 152.429 9.39526C152.799 9.02633 153.232 8.7312 153.731 8.50924C154.239 8.2897 154.792 8.17842 155.394 8.17842C155.976 8.17842 156.517 8.28486 157.016 8.49472C157.524 8.70761 157.962 8.99851 158.33 9.36683C158.71 9.7285 159.005 10.1513 159.218 10.6399C159.431 11.1292 159.537 11.6463 159.537 12.1924Z" fill="#1A1A1A" fill-opacity="0.992157"/>
<path opacity="0.991293" d="M166.369 16.053V11.8878C166.369 11.739 166.36 11.531 166.341 11.2643C166.322 10.9969 166.252 10.7327 166.132 10.475C166.013 10.2083 165.823 9.97666 165.566 9.78252C165.305 9.58899 164.935 9.49223 164.455 9.49223C163.846 9.49223 163.356 9.69543 162.988 10.1019C162.618 10.5083 162.433 11.0986 162.433 11.8733V16.053H160.992V8.38666H162.337V9.20132H162.363C162.557 8.94428 162.771 8.74591 163 8.60621C163.232 8.46952 163.455 8.36792 163.665 8.30139C163.879 8.23789 164.068 8.19978 164.235 8.19253C164.41 8.18345 164.535 8.17862 164.607 8.17862C165.209 8.17862 165.739 8.29655 166.203 8.53786C166.674 8.77857 167.046 9.11423 167.325 9.54907C167.482 9.79704 167.597 10.0783 167.67 10.3922C167.754 10.7067 167.801 11.0798 167.81 11.5122V16.053H166.369Z" fill="#1A1A1A" fill-opacity="0.992157"/>
<path opacity="0.991293" d="M92.2344 35.5973V24.0258H98.4805V25.5759H93.9264V28.9845H98.4805V30.5322H93.9264V34.0497H98.4805V35.5973H92.2344Z" fill="#1A1A1A" fill-opacity="0.992157"/>
<path opacity="0.991293" d="M103.312 29.965C103.265 29.6512 103.155 29.4195 102.98 29.2732C102.813 29.1171 102.595 29.0367 102.328 29.0367C102.058 29.0367 101.843 29.1171 101.677 29.2732C101.51 29.4195 101.426 29.6155 101.426 29.8544C101.426 30.0104 101.459 30.1447 101.525 30.2559C101.588 30.3575 101.677 30.4446 101.787 30.5184C101.897 30.5916 102.024 30.6575 102.162 30.712C102.309 30.7591 102.461 30.8039 102.619 30.8511C102.766 30.8964 102.97 30.9672 103.228 31.0591C103.488 31.151 103.741 31.2932 103.989 31.4867C104.249 31.6712 104.472 31.9167 104.655 32.2215C104.84 32.5167 104.933 32.8898 104.933 33.3416C104.933 33.6839 104.873 34.0026 104.753 34.2959C104.64 34.5911 104.474 34.8512 104.254 35.0731C104.031 35.2926 103.759 35.4674 103.436 35.5975C103.122 35.7275 102.761 35.791 102.356 35.791C102.115 35.791 101.838 35.7511 101.525 35.6658C101.21 35.5836 100.915 35.4414 100.636 35.2382C100.36 35.0259 100.126 34.7447 99.9315 34.3951C99.7366 34.0431 99.6406 33.6059 99.6406 33.0791H101.082C101.107 33.514 101.229 33.8539 101.44 34.1018C101.663 34.3522 101.977 34.4774 102.382 34.4774C102.706 34.4774 102.97 34.3855 103.174 34.1986C103.385 34.0051 103.492 33.7474 103.492 33.4238C103.492 33.2587 103.455 33.1166 103.38 32.9963C103.317 32.8759 103.223 32.7743 103.104 32.6914C102.984 32.5995 102.841 32.5215 102.675 32.4556C102.508 32.3824 102.332 32.3134 102.148 32.2475C101.934 32.1743 101.705 32.0915 101.454 31.9996C101.206 31.898 100.969 31.7631 100.749 31.598C100.536 31.4232 100.356 31.2055 100.207 30.9484C100.06 30.6811 99.9849 30.3436 99.9849 29.9372C99.9849 29.6511 100.041 29.3796 100.152 29.122C100.273 28.8528 100.435 28.6188 100.636 28.4156C100.85 28.2027 101.103 28.0376 101.4 27.9172C101.705 27.7872 102.037 27.7231 102.396 27.7231C102.619 27.7231 102.862 27.7612 103.131 27.8344C103.399 27.9075 103.65 28.0327 103.879 28.2075C104.12 28.3823 104.322 28.6139 104.488 28.9C104.655 29.1855 104.744 29.5399 104.753 29.965H103.312Z" fill="#1A1A1A" fill-opacity="0.992157"/>
<path opacity="0.991293" d="M112.778 31.7776C112.778 31.4371 112.712 31.1039 112.583 30.7827C112.454 30.4495 112.274 30.1543 112.042 29.8967C111.812 29.6372 111.535 29.4292 111.212 29.2732C110.889 29.1171 110.533 29.0367 110.144 29.0367C109.767 29.0367 109.42 29.1171 109.106 29.2732C108.792 29.4195 108.518 29.6179 108.288 29.8683C108.066 30.1162 107.89 30.4071 107.761 30.7404C107.642 31.0639 107.581 31.3996 107.581 31.7516C107.581 32.1387 107.646 32.4979 107.775 32.8311C107.913 33.162 108.099 33.4523 108.331 33.7027C108.57 33.9416 108.846 34.1302 109.16 34.2699C109.483 34.4066 109.825 34.4774 110.186 34.4774C110.528 34.4774 110.852 34.4115 111.156 34.2839C111.47 34.1538 111.747 33.9742 111.988 33.7432C112.227 33.5043 112.417 33.2182 112.555 32.8856C112.703 32.5523 112.778 32.1834 112.778 31.7776ZM106.168 27.9311H107.485V29.108H107.513C107.862 28.6091 108.279 28.2523 108.759 28.0424C109.249 27.8295 109.743 27.7231 110.242 27.7231C110.889 27.7231 111.46 27.844 111.96 28.0823C112.459 28.3236 112.874 28.6375 113.206 29.0252C113.539 29.4123 113.789 29.8544 113.956 30.3527C114.13 30.8511 114.218 31.3543 114.218 31.8599C114.218 32.3491 114.13 32.8312 113.956 33.3011C113.78 33.7619 113.525 34.1823 113.192 34.5603C112.859 34.9292 112.454 35.2292 111.974 35.4602C111.493 35.6803 110.948 35.791 110.338 35.791C109.933 35.791 109.577 35.7462 109.272 35.6543C108.975 35.5618 108.717 35.4511 108.495 35.3211C108.274 35.191 108.094 35.0544 107.956 34.905C107.817 34.7496 107.709 34.6098 107.637 34.4919H107.609V38.1582H106.168V27.9311Z" fill="#1A1A1A" fill-opacity="0.992157"/>
<path opacity="0.991293" d="M122.001 31.7776C122.001 31.3712 121.931 31.0023 121.793 30.6714C121.655 30.3291 121.465 30.0388 121.223 29.7999C120.985 29.5592 120.703 29.3748 120.38 29.2447C120.057 29.1081 119.71 29.0367 119.34 29.0367C118.897 29.0367 118.508 29.1268 118.175 29.3016C117.852 29.4667 117.58 29.6844 117.358 29.9511C117.138 30.2178 116.971 30.5136 116.859 30.8371C116.758 31.1607 116.706 31.4728 116.706 31.7776C116.706 32.1296 116.772 32.4647 116.901 32.7882C117.03 33.1124 117.21 33.3978 117.442 33.6458C117.672 33.8962 117.95 34.0994 118.274 34.2554C118.597 34.4018 118.948 34.4774 119.326 34.4774C119.705 34.4774 120.057 34.4066 120.38 34.2699C120.703 34.1212 120.985 33.927 121.223 33.6887C121.465 33.4384 121.655 33.1523 121.793 32.8311C121.931 32.4979 122.001 32.1483 122.001 31.7776ZM121.973 35.5975V34.4066H121.945C121.669 34.8796 121.294 35.2292 120.823 35.4602C120.361 35.6803 119.867 35.791 119.34 35.791C118.693 35.791 118.117 35.6803 117.608 35.4602C117.1 35.2292 116.672 34.9292 116.32 34.5603C115.978 34.1823 115.715 33.7523 115.53 33.2727C115.354 32.7931 115.266 32.2995 115.266 31.7915C115.266 31.3216 115.35 30.8468 115.516 30.3672C115.682 29.8876 115.931 29.4528 116.264 29.0651C116.606 28.6684 117.03 28.3472 117.538 28.0968C118.047 27.8483 118.647 27.7231 119.34 27.7231C119.876 27.7231 120.375 27.8344 120.837 28.0539C121.298 28.2668 121.669 28.5855 121.945 29.0107H121.973V27.9311H123.414V35.5975H121.973Z" fill="#1A1A1A" fill-opacity="0.992157"/>
<path opacity="0.991293" d="M126.124 25.8403C126.328 25.7127 126.504 25.6111 126.651 25.5355C126.808 25.4623 126.941 25.4127 127.052 25.3843C127.162 25.3468 127.256 25.3232 127.328 25.316C127.413 25.3063 127.485 25.302 127.551 25.302C127.626 25.302 127.755 25.3208 127.939 25.3559C128.132 25.394 128.331 25.4387 128.535 25.4956C128.748 25.5403 128.94 25.5827 129.116 25.6184C129.301 25.6565 129.43 25.6752 129.505 25.6752C129.577 25.6752 129.648 25.6704 129.714 25.6607C129.777 25.6516 129.847 25.6323 129.919 25.6063C130.004 25.5784 130.095 25.5403 130.198 25.4956C130.309 25.4387 130.447 25.3704 130.613 25.2875L131.208 26.1596C130.85 26.4548 130.534 26.6344 130.266 26.6979C130.009 26.7644 129.819 26.7947 129.699 26.7947C129.615 26.7947 129.482 26.7784 129.296 26.7403C129.111 26.7028 128.914 26.6628 128.701 26.6151C128.497 26.5703 128.303 26.528 128.118 26.4923C127.935 26.4548 127.809 26.436 127.745 26.436C127.56 26.436 127.394 26.4687 127.246 26.5328C127.099 26.589 126.941 26.658 126.775 26.7403L126.124 25.8403ZM130.627 35.5974V31.4322C130.627 31.2834 130.618 31.0778 130.599 30.8087C130.58 30.542 130.513 30.2795 130.39 30.0194C130.271 29.7527 130.081 29.5211 129.823 29.3275C129.565 29.134 129.195 29.0366 128.715 29.0366C128.106 29.0366 127.616 29.2399 127.246 29.6463C126.876 30.0527 126.691 30.6436 126.691 31.4183V35.5974H125.25V27.9311H126.595V28.7463H126.623C126.817 28.4887 127.028 28.2903 127.261 28.1506C127.49 28.0139 127.713 27.9123 127.926 27.8482C128.137 27.7823 128.326 27.7472 128.492 27.7375C128.668 27.7279 128.792 27.723 128.867 27.723C129.467 27.723 129.999 27.844 130.461 28.0823C130.932 28.3236 131.307 28.6586 131.583 29.0935C131.74 29.3415 131.855 29.6227 131.93 29.9372C132.012 30.2511 132.059 30.6242 132.068 31.0591V35.5974H130.627Z" fill="#1A1A1A" fill-opacity="0.992157"/>
<path opacity="0.991293" d="M140.359 31.7371C140.359 31.3948 140.296 31.0639 140.167 30.7404C140.036 30.4168 139.853 30.1308 139.612 29.8828C139.382 29.6227 139.098 29.4195 138.766 29.2732C138.433 29.1171 138.066 29.0367 137.658 29.0367C137.252 29.0367 136.882 29.1171 136.549 29.2732C136.217 29.4195 135.931 29.6227 135.69 29.8828C135.46 30.1308 135.28 30.4211 135.151 30.7543C135.022 31.0779 134.956 31.4087 134.956 31.7516C134.956 32.1012 135.022 32.4386 135.151 32.7604C135.28 33.0839 135.465 33.3743 135.704 33.6319C135.945 33.892 136.226 34.0994 136.549 34.2554C136.882 34.4018 137.252 34.4774 137.658 34.4774C138.046 34.4774 138.403 34.4018 138.726 34.2554C139.059 34.1067 139.344 33.9083 139.584 33.6603C139.834 33.4027 140.024 33.1075 140.153 32.7743C140.291 32.4435 140.359 32.0963 140.359 31.7371ZM141.802 31.7371C141.802 32.2076 141.704 32.6824 141.51 33.162C141.324 33.6416 141.057 34.0758 140.706 34.4635C140.354 34.8512 139.921 35.1699 139.403 35.4178C138.888 35.6658 138.304 35.791 137.658 35.791C137.011 35.791 136.43 35.6706 135.912 35.4324C135.404 35.182 134.97 34.8651 134.61 34.4774C134.258 34.0903 133.986 33.6555 133.792 33.1759C133.607 32.6866 133.516 32.1979 133.516 31.7087C133.516 31.1819 133.616 30.6811 133.82 30.1991C134.033 29.7195 134.324 29.3016 134.694 28.9399C135.062 28.5716 135.497 28.2765 135.996 28.0539C136.503 27.8344 137.058 27.7231 137.658 27.7231C138.241 27.7231 138.78 27.8295 139.279 28.0424C139.788 28.2523 140.225 28.5432 140.596 28.9139C140.975 29.2732 141.27 29.6983 141.481 30.1876C141.694 30.6763 141.802 31.1916 141.802 31.7371Z" fill="#1A1A1A" fill-opacity="0.992157"/>
<path opacity="0.991293" d="M143.27 25.3559H144.71V35.5974H143.27V25.3559Z" fill="#1A1A1A" fill-opacity="0.992157"/>
<path opacity="0.991293" d="M152.904 31.7776C152.904 31.3712 152.834 31.0023 152.695 30.6714C152.557 30.3291 152.367 30.0388 152.126 29.7999C151.888 29.5592 151.606 29.3748 151.283 29.2447C150.96 29.1081 150.613 29.0367 150.242 29.0367C149.8 29.0367 149.411 29.1268 149.078 29.3016C148.755 29.4667 148.483 29.6844 148.261 29.9511C148.041 30.2178 147.874 30.5136 147.762 30.8371C147.661 31.1607 147.609 31.4728 147.609 31.7776C147.609 32.1296 147.675 32.4647 147.804 32.7882C147.933 33.1124 148.113 33.3978 148.345 33.6458C148.574 33.8962 148.853 34.0994 149.176 34.2554C149.5 34.4018 149.851 34.4774 150.229 34.4774C150.608 34.4774 150.96 34.4066 151.283 34.2699C151.606 34.1212 151.888 33.927 152.126 33.6887C152.367 33.4384 152.557 33.1523 152.695 32.8311C152.834 32.4979 152.904 32.1483 152.904 31.7776ZM152.876 35.5975V34.4066H152.848C152.571 34.8796 152.196 35.2292 151.726 35.4602C151.264 35.6803 150.77 35.791 150.242 35.791C149.596 35.791 149.019 35.6803 148.511 35.4602C148.003 35.2292 147.574 34.9292 147.222 34.5603C146.881 34.1823 146.618 33.7523 146.433 33.2727C146.257 32.7931 146.168 32.2995 146.168 31.7915C146.168 31.3216 146.253 30.8468 146.419 30.3672C146.585 29.8876 146.834 29.4528 147.167 29.0651C147.509 28.6684 147.933 28.3472 148.441 28.0968C148.949 27.8483 149.549 27.7231 150.242 27.7231C150.779 27.7231 151.278 27.8344 151.74 28.0539C152.201 28.2668 152.571 28.5855 152.848 29.0107H152.876V27.9311H154.317V35.5975H152.876Z" fill="#1A1A1A" fill-opacity="0.992157"/>
<path opacity="0.991293" d="M97.6233 51.7733C97.6233 51.4164 97.5621 51.0904 97.4403 50.7977C97.3186 50.4977 97.15 50.2401 96.9389 50.0272C96.7284 49.8174 96.4777 49.6541 96.194 49.541C95.9079 49.4182 95.6038 49.3565 95.2781 49.3565C94.8864 49.3565 94.5446 49.4345 94.2495 49.5881C93.9658 49.7345 93.7247 49.9256 93.5303 50.1621C93.333 50.3986 93.1879 50.658 93.0895 50.9441C93.0007 51.2302 92.9539 51.5065 92.9539 51.7733C92.9539 52.0829 93.0121 52.3805 93.1273 52.6665C93.2394 52.9496 93.399 53.2024 93.6029 53.4225C93.8062 53.6421 94.0504 53.8217 94.3359 53.9584C94.6219 54.0884 94.9314 54.1549 95.2637 54.1549C95.599 54.1549 95.9079 54.0932 96.194 53.9705C96.4777 53.8404 96.7284 53.6705 96.9389 53.4576C97.15 53.2381 97.3186 52.9877 97.4403 52.7016C97.5621 52.4089 97.6233 52.0992 97.6233 51.7733ZM97.6233 55.1419V54.1785H97.5999C97.3306 54.5541 96.9881 54.8377 96.5712 55.0337C96.1562 55.2199 95.6998 55.3149 95.2031 55.3149C94.6405 55.3149 94.1391 55.2151 93.7013 55.0216C93.2676 54.8184 92.9024 54.5541 92.6001 54.2281C92.3002 53.8949 92.0704 53.5144 91.9157 53.0917C91.7609 52.6689 91.6836 52.2341 91.6836 51.7853C91.6836 51.3717 91.7543 50.9513 91.8923 50.528C92.0374 50.1052 92.2534 49.7224 92.5389 49.3825C92.8322 49.0305 93.1998 48.7469 93.6401 48.5273C94.0785 48.3078 94.6009 48.1965 95.2031 48.1965C95.6764 48.1965 96.1166 48.2909 96.5245 48.4777C96.9299 48.6574 97.2574 48.9005 97.5015 49.2101H97.5249V46.1106H98.7971V55.1419H97.6233Z" fill="#1A1A1A" fill-opacity="0.992157"/>
<path opacity="0.991293" d="M105.728 51.3342C105.712 51.0904 105.646 50.8497 105.532 50.6133C105.417 50.3701 105.262 50.1597 105.067 49.98C104.871 49.7938 104.643 49.6426 104.384 49.5289C104.121 49.4133 103.842 49.3565 103.54 49.3565C103.231 49.3565 102.945 49.4133 102.685 49.5289C102.432 49.6426 102.207 49.7938 102.013 49.98C101.816 50.1597 101.661 50.3701 101.548 50.6133C101.434 50.8497 101.369 51.0904 101.352 51.3342H105.728ZM101.352 52.3121C101.434 52.6357 101.551 52.9169 101.706 53.1528C101.869 53.382 102.052 53.5737 102.256 53.7273C102.469 53.8737 102.687 53.9844 102.917 54.0576C103.144 54.1217 103.365 54.1549 103.578 54.1549C104.048 54.1549 104.449 54.0412 104.775 53.812C105.108 53.5761 105.354 53.3112 105.508 53.0185H106.778C106.617 53.4576 106.403 53.8241 106.143 54.1168C105.883 54.4095 105.602 54.646 105.3 54.8256C105.007 54.9956 104.7 55.1184 104.384 55.1915C104.074 55.272 103.789 55.3149 103.528 55.3149C103.046 55.3149 102.593 55.22 102.172 55.0337C101.755 54.8377 101.394 54.5777 101.082 54.2517C100.773 53.9257 100.529 53.5477 100.349 53.1177C100.171 52.6853 100.082 52.2293 100.082 51.7497C100.082 51.2441 100.171 50.7765 100.349 50.3465C100.537 49.9069 100.785 49.5289 101.096 49.2101C101.413 48.8932 101.781 48.6453 102.195 48.4656C102.619 48.286 103.071 48.1965 103.552 48.1965C104.009 48.1965 104.444 48.286 104.859 48.4656C105.276 48.6362 105.641 48.8769 105.96 49.1865C106.277 49.4956 106.53 49.8621 106.717 50.2849C106.905 50.7076 106.998 51.1685 106.998 51.6644C106.998 51.7781 106.993 51.9033 106.987 52.0424C106.98 52.1797 106.97 52.2692 106.961 52.3121H101.352Z" fill="#1A1A1A" fill-opacity="0.992157"/>
<path opacity="0.991293" d="M113.174 55.1419V45.1205H110.953V43.5728H117.09V45.1205H114.866V55.1419H113.174Z" fill="#1A1A1A" fill-opacity="0.992157"/>
<path opacity="0.991293" d="M124.151 50.826C124.132 50.5472 124.06 50.2757 123.931 50.0083C123.799 49.732 123.624 49.4912 123.404 49.288C123.181 49.0776 122.923 48.9052 122.628 48.7776C122.331 48.6476 122.012 48.5841 121.672 48.5841C121.321 48.5841 120.997 48.6476 120.702 48.7776C120.414 48.9052 120.161 49.0776 119.939 49.288C119.718 49.4912 119.542 49.732 119.414 50.0083C119.282 50.2757 119.21 50.5472 119.191 50.826H124.151ZM119.191 51.9316C119.282 52.3023 119.418 52.6192 119.591 52.8884C119.777 53.146 119.985 53.3631 120.217 53.5379C120.456 53.703 120.707 53.8288 120.964 53.9111C121.222 53.9842 121.473 54.0223 121.712 54.0223C122.248 54.0223 122.701 53.8923 123.071 53.6347C123.45 53.368 123.727 53.068 123.903 52.7347H125.343C125.159 53.2331 124.917 53.6492 124.622 53.98C124.327 54.3126 124.008 54.58 123.666 54.7832C123.333 54.9767 122.987 55.1158 122.628 55.1987C122.277 55.2912 121.953 55.3359 121.658 55.3359C121.112 55.3359 120.599 55.2295 120.119 55.019C119.648 54.7971 119.238 54.502 118.887 54.133C118.535 53.7647 118.259 53.3347 118.055 52.846C117.851 52.3567 117.75 51.8391 117.75 51.2959C117.75 50.7244 117.851 50.1928 118.055 49.7035C118.268 49.2052 118.549 48.7776 118.9 48.4159C119.261 48.0573 119.676 47.7761 120.147 47.5728C120.627 47.3696 121.14 47.268 121.684 47.268C122.202 47.268 122.696 47.3696 123.167 47.5728C123.638 47.7664 124.055 48.0379 124.415 48.3899C124.774 48.7395 125.06 49.1556 125.273 49.6352C125.487 50.1148 125.592 50.6367 125.592 51.1992C125.592 51.3268 125.587 51.4707 125.578 51.6268C125.568 51.7852 125.562 51.8868 125.552 51.9316H119.191Z" fill="#1A1A1A" fill-opacity="0.992157"/>
<path opacity="0.991293" d="M127.043 55.1418V47.4761H128.388V48.168H128.416C128.563 47.9557 128.73 47.79 128.915 47.6696C129.107 47.5493 129.296 47.4616 129.482 47.4071C129.667 47.3412 129.838 47.3055 129.995 47.2965C130.152 47.2777 130.276 47.268 130.37 47.268V48.7492C130.257 48.7492 130.1 48.7728 129.896 48.8175C129.695 48.8647 129.505 48.9336 129.329 49.0256C129.097 49.1556 128.901 49.3727 128.734 49.6751C128.568 49.9709 128.484 50.396 128.484 50.9488V55.1418H127.043Z" fill="#1A1A1A" fill-opacity="0.992157"/>
<path opacity="0.991293" d="M137.8 51.3244C137.8 50.918 137.732 50.5472 137.594 50.2164C137.454 49.8735 137.266 49.5832 137.025 49.3443C136.785 49.1036 136.502 48.9191 136.179 48.7915C135.856 48.6524 135.511 48.5841 135.141 48.5841C134.698 48.5841 134.309 48.6712 133.977 48.8459C133.653 49.0117 133.382 49.2288 133.159 49.4955C132.938 49.7652 132.772 50.0604 132.66 50.3815C132.559 50.7051 132.508 51.0196 132.508 51.3244C132.508 51.6739 132.573 52.0096 132.702 52.3332C132.831 52.6567 133.011 52.9428 133.243 53.1908C133.473 53.4411 133.752 53.6443 134.075 53.8004C134.396 53.9492 134.747 54.0223 135.127 54.0223C135.507 54.0223 135.856 53.954 136.179 53.8143C136.502 53.6679 136.785 53.4744 137.025 53.2331C137.266 52.9851 137.454 52.6966 137.594 52.3755C137.732 52.0423 137.8 51.6927 137.8 51.3244ZM137.774 55.1418V53.954H137.746C137.467 54.4239 137.095 54.7735 136.624 55.0051C136.162 55.2271 135.668 55.3359 135.141 55.3359C134.494 55.3359 133.915 55.2271 133.41 55.0051C132.901 54.7735 132.47 54.4735 132.121 54.1052C131.779 53.7272 131.514 53.2972 131.332 52.8176C131.156 52.338 131.066 51.8439 131.066 51.3359C131.066 50.8659 131.151 50.3912 131.317 49.9116C131.484 49.432 131.732 48.9971 132.064 48.6101C132.407 48.2127 132.831 47.8916 133.339 47.6412C133.848 47.3932 134.447 47.268 135.141 47.268C135.678 47.268 136.174 47.3787 136.638 47.6013C137.1 47.8136 137.467 48.1305 137.746 48.5556H137.774V47.4761H139.215V55.1418H137.774Z" fill="#1A1A1A" fill-opacity="0.992157"/>
<path opacity="0.991293" d="M147.957 51.3244C147.957 50.9815 147.894 50.6488 147.762 50.3271C147.633 49.9944 147.453 49.6987 147.224 49.4417C146.992 49.1816 146.715 48.976 146.392 48.8175C146.069 48.6621 145.712 48.5841 145.326 48.5841C144.946 48.5841 144.6 48.6621 144.285 48.8175C143.972 48.9663 143.7 49.1653 143.468 49.4132C143.245 49.6636 143.072 49.9539 142.941 50.2847C142.821 50.6083 142.76 50.944 142.76 51.2959C142.76 51.6836 142.826 52.0423 142.955 52.3755C143.093 52.7063 143.278 52.9972 143.51 53.2476C143.749 53.4859 144.028 53.6752 144.342 53.8143C144.665 53.954 145.008 54.0223 145.366 54.0223C145.707 54.0223 146.031 53.9582 146.335 53.8288C146.65 53.6988 146.929 53.5192 147.167 53.2875C147.408 53.0486 147.596 52.7632 147.737 52.4299C147.884 52.0991 147.957 51.7284 147.957 51.3244ZM141.348 47.4761H142.664V48.6524H142.692C143.044 48.1541 143.458 47.7997 143.939 47.5868C144.429 47.3745 144.923 47.268 145.422 47.268C146.069 47.268 146.64 47.3884 147.139 47.6273C147.638 47.868 148.056 48.1825 148.388 48.5696C148.718 48.9572 148.969 49.3987 149.135 49.8977C149.311 50.396 149.398 50.8992 149.398 51.4072C149.398 51.8959 149.311 52.3755 149.135 52.846C148.96 53.3063 148.706 53.7272 148.374 54.1052C148.041 54.4735 147.633 54.7735 147.154 55.0051C146.673 55.2271 146.13 55.336 145.518 55.336C145.113 55.336 144.757 55.2912 144.452 55.1987C144.157 55.1067 143.897 54.9955 143.677 54.8654C143.454 54.7378 143.274 54.5987 143.135 54.4499C142.997 54.2939 142.891 54.1566 142.817 54.0363H142.788V57.7031H141.348V47.4761Z" fill="#1A1A1A" fill-opacity="0.992157"/>
<path opacity="0.991293" d="M152.3 46.5902H150.859V44.9011H152.3V46.5902ZM152.3 55.142H150.859V47.4763H152.3V55.142Z" fill="#1A1A1A" fill-opacity="0.992157"/>
<path opacity="0.991293" d="M160.491 51.3244C160.491 50.918 160.423 50.5472 160.285 50.2164C160.147 49.8735 159.957 49.5832 159.715 49.3443C159.477 49.1036 159.193 48.9191 158.87 48.7915C158.546 48.6524 158.202 48.5841 157.832 48.5841C157.389 48.5841 157 48.6712 156.667 48.8459C156.344 49.0117 156.072 49.2288 155.85 49.4955C155.63 49.7652 155.463 50.0604 155.351 50.3815C155.25 50.7051 155.198 51.0196 155.198 51.3244C155.198 51.6739 155.264 52.0096 155.393 52.3332C155.522 52.6567 155.702 52.9428 155.934 53.1908C156.164 53.4411 156.442 53.6443 156.766 53.8004C157.089 53.9492 157.438 54.0223 157.818 54.0223C158.197 54.0223 158.546 53.954 158.87 53.8143C159.193 53.6679 159.477 53.4744 159.715 53.2331C159.957 52.9851 160.147 52.6966 160.285 52.3755C160.423 52.0423 160.491 51.6927 160.491 51.3244ZM160.465 55.1418V53.954H160.437C160.159 54.4239 159.786 54.7735 159.315 55.0051C158.854 55.2271 158.359 55.3359 157.832 55.3359C157.186 55.3359 156.609 55.2271 156.101 55.0051C155.592 54.7735 155.163 54.4735 154.812 54.1052C154.47 53.7272 154.205 53.2972 154.022 52.8176C153.847 52.338 153.758 51.8439 153.758 51.3359C153.758 50.8659 153.842 50.3912 154.009 49.9116C154.175 49.432 154.423 48.9971 154.756 48.6101C155.098 48.2127 155.522 47.8916 156.03 47.6412C156.538 47.3932 157.138 47.268 157.832 47.268C158.368 47.268 158.867 47.3787 159.329 47.6013C159.79 47.8136 160.159 48.1305 160.437 48.5556H160.465V47.4761H161.907V55.1418H160.465Z" fill="#1A1A1A" fill-opacity="0.992157"/>
<path opacity="0.991293" d="M100.954 66.0263C100.828 65.8914 100.671 65.733 100.484 65.5557C100.308 65.3785 100.088 65.2086 99.8274 65.0411C99.5653 64.8729 99.2678 64.7338 98.935 64.6177C98.6003 64.5046 98.2206 64.4454 97.7918 64.4454C97.1872 64.4454 96.6228 64.5657 96.1004 64.807C95.5797 65.0453 95.1257 65.3737 94.7388 65.7922C94.3526 66.1986 94.0503 66.671 93.832 67.2141C93.6119 67.7554 93.5021 68.3293 93.5021 68.9341C93.5021 69.5698 93.6238 70.1582 93.8625 70.7013C94.1133 71.242 94.4365 71.7125 94.8324 72.1093C95.2307 72.4945 95.6829 72.8018 96.1963 73.031C96.7164 73.2505 97.2549 73.3588 97.8079 73.3588C97.8595 73.3588 97.9699 73.3545 98.136 73.3449C98.3022 73.3334 98.5019 73.3025 98.731 73.2505C98.9703 73.1864 99.2276 73.0993 99.4975 72.9832C99.7806 72.8701 100.062 72.7068 100.343 72.4994C100.625 72.2792 100.891 72.0101 101.142 71.6865C101.393 71.363 101.611 70.9614 101.801 70.4818H96.3979V68.9341H103.724C103.705 69.903 103.511 70.763 103.145 71.5142C102.792 72.2532 102.332 72.8749 101.768 73.3757C101.205 73.8765 100.568 74.2569 99.858 74.5169C99.1485 74.7764 98.4431 74.9064 97.745 74.9064C96.8993 74.9064 96.1117 74.7504 95.3806 74.4389C94.6615 74.1148 94.0335 73.6829 93.5021 73.1392C92.9815 72.5889 92.5694 71.9508 92.2647 71.2329C91.9624 70.5144 91.8125 69.747 91.8125 68.9341C91.8125 68.1001 91.9624 67.3181 92.2647 66.5881C92.5694 65.8581 92.9863 65.2225 93.5183 64.6818C94.0503 64.129 94.6759 63.6966 95.3974 63.3821C96.1166 63.061 96.8945 62.8983 97.7282 62.8983C98.2206 62.8983 98.7148 62.9666 99.2162 63.1015C99.7177 63.2267 100.193 63.4202 100.641 63.6803C101.1 63.9422 101.524 64.2706 101.908 64.6655C102.306 65.0501 102.644 65.5037 102.927 66.0263H100.954Z" fill="#1A1A1A" fill-opacity="0.992157"/>
<path opacity="0.991293" d="M111.167 70.3705C111.147 70.0941 111.075 69.8201 110.944 69.5534C110.815 69.2764 110.639 69.0382 110.419 68.8349C110.197 68.6221 109.939 68.4521 109.644 68.3221C109.346 68.1927 109.027 68.1286 108.688 68.1286C108.336 68.1286 108.013 68.1927 107.718 68.3221C107.429 68.4521 107.176 68.6221 106.954 68.8349C106.733 69.0382 106.558 69.2764 106.429 69.5534C106.298 69.8201 106.225 70.0941 106.206 70.3705H111.167ZM106.206 71.4785C106.298 71.8468 106.431 72.1637 106.607 72.4328C106.792 72.6905 107 72.9076 107.233 73.0824C107.472 73.2481 107.72 73.3733 107.98 73.4561C108.238 73.5293 108.488 73.5668 108.727 73.5668C109.264 73.5668 109.716 73.4368 110.086 73.1798C110.464 72.9124 110.742 72.6125 110.918 72.2792H112.359C112.174 72.7782 111.932 73.1937 111.637 73.5269C111.342 73.8577 111.023 74.1244 110.681 74.3277C110.348 74.5212 110.002 74.6609 109.644 74.7437C109.292 74.8357 108.969 74.8829 108.673 74.8829C108.127 74.8829 107.615 74.7764 107.134 74.5641C106.663 74.3422 106.253 74.0464 105.902 73.6781C105.55 73.3092 105.274 72.8798 105.07 72.3905C104.866 71.9012 104.766 71.3841 104.766 70.8404C104.766 70.2689 104.866 69.7373 105.07 69.2486C105.283 68.7497 105.565 68.3221 105.916 67.9634C106.274 67.6018 106.692 67.3206 107.162 67.1173C107.643 66.9141 108.156 66.8125 108.699 66.8125C109.217 66.8125 109.711 66.9141 110.182 67.1173C110.653 67.3109 111.071 67.583 111.429 67.935C111.79 68.2846 112.075 68.7001 112.289 69.1797C112.502 69.6593 112.607 70.1818 112.607 70.7437C112.607 70.8737 112.602 71.0158 112.593 71.1737C112.584 71.3297 112.574 71.4313 112.565 71.4785H106.206Z" fill="#1A1A1A" fill-opacity="0.992157"/>
<path opacity="0.991293" d="M117.07 69.0545C117.025 68.743 116.913 68.5114 116.737 68.3626C116.573 68.2066 116.355 68.1286 116.089 68.1286C115.819 68.1286 115.603 68.2066 115.437 68.3626C115.271 68.5114 115.186 68.7049 115.186 68.9438C115.186 69.1017 115.219 69.2365 115.285 69.3454C115.348 69.447 115.437 69.5341 115.547 69.6097C115.657 69.6829 115.781 69.747 115.922 69.8038C116.07 69.8486 116.222 69.8958 116.379 69.9405C116.526 69.9877 116.73 70.0566 116.988 70.1485C117.246 70.2405 117.501 70.385 117.749 70.5786C118.01 70.763 118.23 71.0061 118.415 71.311C118.6 71.6061 118.692 71.9793 118.692 72.4328C118.692 72.7733 118.633 73.0921 118.511 73.3872C118.401 73.683 118.235 73.94 118.014 74.1625C117.792 74.3845 117.52 74.5593 117.196 74.6893C116.883 74.8169 116.522 74.8829 116.114 74.8829C115.875 74.8829 115.598 74.8405 115.285 74.7577C114.969 74.6748 114.673 74.5309 114.397 74.3277C114.121 74.1148 113.884 73.8341 113.689 73.4846C113.497 73.1344 113.398 72.6953 113.398 72.1685H114.84C114.868 72.6028 114.987 72.9433 115.2 73.1937C115.423 73.4416 115.737 73.5668 116.142 73.5668C116.466 73.5668 116.73 73.4749 116.932 73.2904C117.145 73.0969 117.25 72.8393 117.25 72.5157C117.25 72.3506 117.216 72.206 117.141 72.0857C117.075 71.9653 116.983 71.8662 116.864 71.7809C116.742 71.689 116.599 71.6109 116.433 71.5468C116.267 71.4737 116.091 71.4029 115.908 71.3394C115.695 71.2662 115.463 71.1833 115.215 71.089C114.964 70.9898 114.729 70.855 114.507 70.6892C114.296 70.512 114.116 70.2973 113.968 70.0373C113.821 69.7706 113.746 69.4325 113.746 69.0285C113.746 68.743 113.802 68.469 113.912 68.2114C114.031 67.9441 114.193 67.7082 114.397 67.505C114.61 67.2921 114.863 67.127 115.158 67.0067C115.463 66.879 115.796 66.8125 116.156 66.8125C116.379 66.8125 116.622 66.8506 116.892 66.9238C117.159 66.997 117.407 67.1222 117.64 67.297C117.878 67.4742 118.082 67.7034 118.248 67.9894C118.415 68.2749 118.501 68.6317 118.511 69.0545H117.07Z" fill="#1A1A1A" fill-opacity="0.992157"/>
<path opacity="0.991293" d="M121.741 74.6893H120.299V68.3366H119.262V67.0206H120.299V64.4478H121.741V67.0206H123.003V68.3366H121.741V74.6893Z" fill="#1A1A1A" fill-opacity="0.992157"/>
<path opacity="0.991293" d="M130.307 70.8689C130.307 70.4624 130.24 70.0941 130.099 69.7609C129.961 69.421 129.773 69.1301 129.532 68.8894C129.291 68.6505 129.009 68.4642 128.686 68.3366C128.363 68.1969 128.016 68.1286 127.648 68.1286C127.203 68.1286 126.817 68.2162 126.484 68.391C126.16 68.5561 125.889 68.7733 125.666 69.0406C125.444 69.3097 125.277 69.6048 125.167 69.9266C125.066 70.2502 125.015 70.564 125.015 70.8689C125.015 71.2184 125.08 71.5565 125.209 71.8777C125.338 72.2012 125.519 72.4873 125.75 72.7377C125.98 72.9856 126.256 73.1888 126.58 73.3449C126.903 73.4936 127.254 73.5668 127.634 73.5668C128.011 73.5668 128.363 73.4985 128.686 73.3588C129.009 73.2124 129.293 73.0189 129.532 72.7782C129.773 72.5296 129.961 72.2441 130.099 71.9206C130.24 71.5873 130.307 71.2378 130.307 70.8689ZM130.279 74.6893V73.4985H130.253C129.975 73.9684 129.602 74.318 129.131 74.5496C128.668 74.7716 128.173 74.8829 127.648 74.8829C127.001 74.8829 126.423 74.7716 125.915 74.5496C125.408 74.318 124.977 74.018 124.626 73.6497C124.286 73.2717 124.022 72.8441 123.836 72.3621C123.661 71.8825 123.574 71.389 123.574 70.8834C123.574 70.411 123.658 69.9357 123.823 69.4561C123.989 68.9765 124.239 68.5446 124.572 68.157C124.914 67.7602 125.338 67.4367 125.847 67.1881C126.355 66.9377 126.955 66.8125 127.648 66.8125C128.182 66.8125 128.681 66.9238 129.143 67.1458C129.607 67.3587 129.975 67.675 130.253 68.1001H130.279V67.0206H131.721V74.6893H130.279Z" fill="#1A1A1A" fill-opacity="0.992157"/>
<path opacity="0.991293" d="M133.574 64.4478H135.015V74.6893H133.574V64.4478Z" fill="#1A1A1A" fill-opacity="0.992157"/>
<path opacity="0.991293" d="M138.479 74.6893H137.038V68.3366H136V67.0206H137.038V64.4478H138.479V67.0206H139.741V68.3366H138.479V74.6893Z" fill="#1A1A1A" fill-opacity="0.992157"/>
</svg>
