<svg width="20" height="24" viewBox="0 0 20 24" fill="none" xmlns="http://www.w3.org/2000/svg">
<path d="M10 23C10 23 19 17 19 10C19 7.61305 18.0518 5.32387 16.364 3.63604C14.6761 1.94821 12.3869 1 10 1C7.61305 1 5.32387 1.94821 3.63604 3.63604C1.94821 5.32387 1 7.61305 1 10C1 14.2913 4.38233 18.2067 7 20.5944M10 13C11.6569 13 13 11.6569 13 10C13 8.34315 11.6569 7 10 7C8.34315 7 7 8.34315 7 10C7 10.6134 7.18408 11.1837 7.5 11.6589" stroke="#B682C6" stroke-width="2" stroke-linecap="round" stroke-linejoin="round"/>
</svg>
