<svg width="28" height="24" viewBox="0 0 28 24" fill="none" xmlns="http://www.w3.org/2000/svg">
<path fill-rule="evenodd" clip-rule="evenodd" d="M26.4617 22.0412C26.9961 21.9017 27.3106 21.3569 27.1641 20.8244L24.4848 11.0822C24.3383 10.5497 23.7864 10.2311 23.252 10.3706C22.7177 10.5101 22.4032 11.0549 22.5497 11.5874L23.7054 15.7898L20.6409 16.5901L17.071 3.60949L20.1355 2.80947L21.21 6.71635C21.3564 7.24887 21.9084 7.56746 22.4427 7.42796C22.9771 7.28846 23.2916 6.74368 23.1451 6.21117L21.8055 1.34009C21.659 0.807579 21.1071 0.488981 20.5727 0.628484L15.5731 1.93369C15.0387 2.07319 14.7242 2.61796 14.8707 3.15048L20.2293 22.6348C20.3757 23.1673 20.9277 23.4859 21.462 23.3464L26.4617 22.0412ZM21.1713 18.5186L24.2358 17.7184L24.9638 20.3654L21.8993 21.1654L21.1713 18.5186ZM1.5 1.22623C0.947715 1.22623 0.5 1.67395 0.5 2.22623V22.3979C0.5 22.9502 0.947715 23.3979 1.5 23.3979H13.7931C14.3454 23.3979 14.7931 22.9502 14.7931 22.3979V2.22623C14.7931 1.67395 14.3454 1.22623 13.7931 1.22623H1.5ZM2.5 6.94913V3.22623H6.96622L6.96646 6.90229L2.80448 6.90254C2.69852 6.90255 2.59622 6.91887 2.5 6.94913ZM8.97289 6.90305L8.97265 3.22623H12.7931V16.9881L8.97354 16.9883L8.97302 8.89651L9.90088 8.89601C10.4549 8.89571 10.9089 8.44921 10.9148 7.89873C10.9208 7.34824 10.4765 6.90223 9.92242 6.90253L8.97289 6.90305ZM8.97383 21.3979L8.97367 18.9818L12.7931 18.9815V21.3979H8.97383ZM6.96724 18.9816L6.96739 21.3979H2.5V8.85599C2.58928 8.88205 2.6839 8.89602 2.78196 8.89601L6.96659 8.89576L6.96711 16.9881L4.74554 16.9882C4.19149 16.9883 3.73731 17.4346 3.73109 17.985C3.72487 18.5355 4.16898 18.9817 4.72302 18.9817L6.96724 18.9816Z" fill="black"/>
</svg>
