<svg width="33" height="32" viewBox="0 0 33 32" fill="none" xmlns="http://www.w3.org/2000/svg">
<g clip-path="url(#clip0)">
<path d="M16.4984 10.8002L15.9437 11.6322L16.4984 12.002L17.0531 11.6322L16.4984 10.8002ZM28.1984 7.55019L29.1984 7.5502C29.1984 7.04065 28.8153 6.61258 28.3089 6.55631L28.1984 7.55019ZM28.1984 25.7502V26.7502C28.7507 26.7502 29.1984 26.3025 29.1984 25.7502H28.1984ZM16.4984 28.3502L16.127 29.2787C16.3655 29.374 16.6314 29.374 16.8698 29.2787L16.4984 28.3502ZM4.14844 25.7502H3.14844C3.14844 26.3025 3.59615 26.7502 4.14844 26.7502V25.7502ZM4.14844 7.55019L3.9059 6.58005C3.46074 6.69134 3.14844 7.09133 3.14844 7.55019L4.14844 7.55019ZM17.0531 11.6322C19.8276 9.78261 22.6039 9.01076 24.6887 8.7019C25.7304 8.54758 26.5949 8.50957 27.193 8.50957C27.4918 8.50957 27.7234 8.51906 27.8765 8.52813C27.953 8.53267 28.0099 8.53709 28.0456 8.54017C28.0635 8.5417 28.0761 8.5429 28.0832 8.54361C28.0868 8.54396 28.089 8.54419 28.0898 8.54427C28.0902 8.54432 28.0902 8.54432 28.0899 8.54429C28.0898 8.54427 28.0896 8.54425 28.0892 8.54421C28.0891 8.5442 28.0888 8.54416 28.0887 8.54415C28.0884 8.54412 28.088 8.54408 28.1984 7.55019C28.3089 6.55631 28.3085 6.55627 28.3081 6.55622C28.3079 6.5562 28.3074 6.55615 28.3071 6.55612C28.3064 6.55604 28.3057 6.55596 28.3048 6.55587C28.3031 6.55568 28.301 6.55546 28.2986 6.5552C28.2937 6.55469 28.2875 6.55405 28.2798 6.55329C28.2644 6.55177 28.2434 6.5498 28.217 6.54753C28.1642 6.54298 28.0897 6.53725 27.9948 6.53163C27.8051 6.52039 27.534 6.50957 27.193 6.50957C26.5114 6.50957 25.5478 6.55281 24.3956 6.72349C22.093 7.06463 19.0193 7.91777 15.9437 9.96814L17.0531 11.6322ZM28.1984 7.55019C27.1984 7.55019 27.1984 7.55024 27.1984 7.55032C27.1984 7.5504 27.1984 7.55053 27.1984 7.5507C27.1984 7.55104 27.1984 7.55154 27.1984 7.55221C27.1984 7.55355 27.1984 7.55556 27.1984 7.55823C27.1984 7.56357 27.1984 7.57155 27.1984 7.58211C27.1984 7.60324 27.1984 7.6347 27.1984 7.67604C27.1984 7.75871 27.1984 7.88091 27.1984 8.03896C27.1984 8.35508 27.1984 8.81465 27.1984 9.38848C27.1984 10.5361 27.1984 12.1408 27.1984 13.9689C27.1984 17.6252 27.1984 22.1752 27.1984 25.7502H29.1984C29.1984 22.1752 29.1984 17.6252 29.1984 13.9689C29.1984 12.1408 29.1984 10.5361 29.1984 9.38848C29.1984 8.81465 29.1984 8.35508 29.1984 8.03896C29.1984 7.88091 29.1984 7.75872 29.1984 7.67604C29.1984 7.6347 29.1984 7.60324 29.1984 7.58211C29.1984 7.57155 29.1984 7.56357 29.1984 7.55823C29.1984 7.55556 29.1984 7.55355 29.1984 7.55221C29.1984 7.55154 29.1984 7.55104 29.1984 7.5507C29.1984 7.55053 29.1984 7.55041 29.1984 7.55032C29.1984 7.55024 29.1984 7.5502 28.1984 7.55019ZM28.1984 24.7502C24.8781 24.7502 22.67 25.0826 20.855 25.6012C19.0843 26.1071 17.6644 26.8068 16.127 27.4217L16.8698 29.2787C18.5825 28.5936 19.7626 27.9933 21.4044 27.5242C23.0019 27.0678 25.0188 26.7502 28.1984 26.7502V24.7502ZM16.8698 27.4217C15.282 26.7866 13.7411 26.1029 11.7946 25.5951C9.83036 25.0827 7.46895 24.7502 4.14844 24.7502V26.7502C7.32793 26.7502 9.51651 27.0677 11.2898 27.5303C13.0808 27.9975 14.4649 28.6138 16.127 29.2787L16.8698 27.4217ZM4.14844 25.7502C5.14844 25.7502 5.14844 25.7502 5.14844 25.7501C5.14844 25.75 5.14844 25.7498 5.14844 25.7497C5.14844 25.7493 5.14844 25.7488 5.14844 25.7481C5.14844 25.7466 5.14844 25.7445 5.14844 25.7417C5.14844 25.736 5.14844 25.7276 5.14844 25.7164C5.14844 25.6941 5.14844 25.6609 5.14844 25.6172C5.14844 25.5299 5.14844 25.4011 5.14844 25.2348C5.14844 24.9021 5.14844 24.4197 5.14844 23.8205C5.14844 22.6221 5.14844 20.9564 5.14844 19.0877C5.14844 15.3502 5.14844 10.8002 5.14844 7.5502L3.14844 7.55019C3.14844 10.8002 3.14844 15.3502 3.14844 19.0877C3.14844 20.9564 3.14844 22.6221 3.14844 23.8205C3.14844 24.4197 3.14844 24.9021 3.14844 25.2348C3.14844 25.4011 3.14844 25.5299 3.14844 25.6172C3.14844 25.6609 3.14844 25.6941 3.14844 25.7164C3.14844 25.7276 3.14844 25.736 3.14844 25.7417C3.14844 25.7445 3.14844 25.7466 3.14844 25.7481C3.14844 25.7488 3.14844 25.7493 3.14844 25.7497C3.14844 25.7498 3.14844 25.75 3.14844 25.7501C3.14844 25.7502 3.14844 25.7502 4.14844 25.7502ZM4.14844 7.55019C4.39098 8.52034 4.39059 8.52043 4.39022 8.52052C4.39011 8.52055 4.38975 8.52064 4.38953 8.5207C4.38909 8.52081 4.38868 8.52091 4.38832 8.521C4.38759 8.52118 4.38701 8.52132 4.38659 8.52142C4.38575 8.52162 4.38552 8.52168 4.38591 8.52159C4.38668 8.5214 4.3899 8.52065 4.39552 8.5194C4.40677 8.5169 4.42763 8.51242 4.4578 8.50658C4.51814 8.4949 4.61563 8.47779 4.74779 8.46017C5.01215 8.42492 5.41477 8.3877 5.93594 8.3877C6.97735 8.3877 8.49445 8.53629 10.3322 9.14888L10.9647 7.25151C8.90242 6.5641 7.16953 6.3877 5.93594 6.3877C5.31961 6.3877 4.82848 6.43172 4.48346 6.47772C4.31093 6.50072 4.17483 6.52424 4.07775 6.54302C4.02921 6.55242 3.9904 6.56064 3.96166 6.56703C3.94729 6.57022 3.93543 6.57296 3.92612 6.57515C3.92147 6.57625 3.91746 6.57722 3.91408 6.57804C3.9124 6.57845 3.91087 6.57882 3.90951 6.57916C3.90883 6.57933 3.90819 6.57948 3.90759 6.57963C3.90729 6.57971 3.90686 6.57981 3.90671 6.57985C3.9063 6.57995 3.9059 6.58005 4.14844 7.55019ZM10.3322 9.14888C12.2347 9.78304 13.6535 10.4145 14.5887 10.8821C15.0563 11.1159 15.4031 11.3088 15.6289 11.4405C15.7419 11.5064 15.8246 11.557 15.877 11.5898C15.9033 11.6062 15.9219 11.6181 15.9331 11.6253C15.9386 11.6289 15.9423 11.6313 15.9441 11.6325C15.945 11.6331 15.9454 11.6333 15.9453 11.6333C15.9453 11.6333 15.9451 11.6332 15.9449 11.633C15.9448 11.6329 15.9446 11.6328 15.9444 11.6327C15.9443 11.6326 15.9441 11.6325 15.9441 11.6325C15.9439 11.6324 15.9437 11.6322 16.4984 10.8002C17.0531 9.96814 17.0529 9.96801 17.0527 9.96788C17.0527 9.96783 17.0525 9.96769 17.0523 9.96758C17.052 9.96738 17.0516 9.96715 17.0513 9.96691C17.0505 9.96642 17.0497 9.96585 17.0487 9.9652C17.0467 9.9639 17.0443 9.96229 17.0414 9.96038C17.0355 9.95655 17.0278 9.95149 17.0181 9.94524C16.9988 9.93274 16.9717 9.91549 16.937 9.8938C16.8676 9.85042 16.7675 9.78929 16.6367 9.71298C16.375 9.56035 15.9905 9.34695 15.4832 9.09327C14.4684 8.58588 12.9622 7.91735 10.9647 7.25151L10.3322 9.14888Z" fill="black"/>
<path d="M7.39845 1.7002V0.700195C6.84618 0.700195 6.39847 1.14789 6.39845 1.70016L7.39845 1.7002ZM6.39845 3.65021C6.39846 4.2025 6.84618 4.6502 7.39847 4.6502C7.95075 4.65019 8.39846 4.20246 8.39845 3.65018L6.39845 3.65021ZM17.4686 9.90766C17.2624 9.08309 16.7349 8.1122 16.0829 7.1657C15.4164 6.19826 14.5643 5.17684 13.6305 4.24309C12.6988 3.31135 11.6635 2.44454 10.6251 1.80385C9.60807 1.17631 8.48335 0.700195 7.39845 0.700195V2.7002C7.93854 2.7002 8.68257 2.95533 9.5749 3.50592C10.4459 4.04335 11.3606 4.80154 12.2163 5.6573C13.0701 6.51105 13.843 7.43963 14.4359 8.30031C15.0432 9.18194 15.4094 9.9173 15.5283 10.3927L17.4686 9.90766ZM7.39845 1.7002C6.39845 1.70016 6.39845 1.70016 6.39845 1.70017C6.39845 1.70017 6.39845 1.70018 6.39845 1.70019C6.39845 1.70021 6.39845 1.70024 6.39845 1.70028C6.39845 1.70036 6.39845 1.70048 6.39845 1.70064C6.39845 1.70095 6.39845 1.70143 6.39845 1.70207C6.39845 1.70334 6.39845 1.70524 6.39845 1.70778C6.39845 1.71286 6.39845 1.72048 6.39845 1.73064C6.39845 1.75095 6.39845 1.78142 6.39844 1.82205C6.39844 1.9033 6.39844 2.02518 6.39844 2.18769C6.39844 2.5127 6.39844 3.0002 6.39845 3.65021L8.39845 3.65018C8.39844 3.00019 8.39844 2.5127 8.39844 2.1877C8.39844 2.02521 8.39844 1.90334 8.39844 1.82209C8.39845 1.78147 8.39845 1.751 8.39845 1.73069C8.39845 1.72054 8.39845 1.71292 8.39845 1.70784C8.39845 1.70531 8.39845 1.7034 8.39845 1.70213C8.39845 1.7015 8.39845 1.70102 8.39845 1.70071C8.39845 1.70055 8.39845 1.70043 8.39845 1.70035C8.39845 1.70031 8.39845 1.70028 8.39845 1.70026C8.39845 1.70025 8.39845 1.70024 8.39845 1.70024C8.39845 1.70023 8.39845 1.70023 7.39845 1.7002Z" fill="black"/>
<path d="M17.5 9.5C17.5 8.94772 17.0523 8.5 16.5 8.5C15.9477 8.5 15.5 8.94772 15.5 9.5H17.5ZM15.5 23.15C15.5 23.7023 15.9477 24.15 16.5 24.15C17.0523 24.15 17.5 23.7023 17.5 23.15H15.5ZM15.5 9.5V23.15H17.5V9.5H15.5Z" fill="black"/>
<path d="M25.5976 3V2C26.1499 2 26.5976 2.44771 26.5976 2.99999L25.5976 3ZM26.5976 6.90002C26.5976 7.4523 26.1499 7.90001 25.5976 7.9C25.0453 7.89999 24.5976 7.45227 24.5976 6.89998L26.5976 6.90002ZM15.5275 9.90746C15.7407 9.05476 16.2887 8.15051 16.9539 7.31369C17.6336 6.45858 18.4981 5.5962 19.4394 4.82604C20.3803 4.05622 21.4197 3.36075 22.4565 2.85335C23.48 2.35251 24.5718 2 25.5976 2V4C24.9985 4 24.2216 4.21624 23.3356 4.64978C22.4631 5.07675 21.5525 5.68128 20.7059 6.37396C19.8597 7.0663 19.0992 7.82892 18.5195 8.55818C17.9253 9.30574 17.5796 9.94524 17.4678 10.3925L15.5275 9.90746ZM25.5976 3C26.5976 2.99999 26.5976 3 26.5976 3.00002C26.5976 3.00004 26.5976 3.00007 26.5976 3.00011C26.5976 3.00019 26.5976 3.00031 26.5976 3.00047C26.5976 3.00078 26.5976 3.00125 26.5976 3.00188C26.5976 3.00314 26.5976 3.00501 26.5976 3.00749C26.5976 3.01245 26.5976 3.01983 26.5976 3.02951C26.5976 3.04887 26.5976 3.07743 26.5976 3.11425C26.5976 3.18788 26.5976 3.29452 26.5976 3.42656C26.5977 3.69062 26.5977 4.05625 26.5977 4.4625C26.5977 5.275 26.5977 6.25001 26.5976 6.90002L24.5976 6.89998C24.5977 6.24999 24.5977 5.275 24.5977 4.4625C24.5977 4.05625 24.5977 3.69063 24.5976 3.42657C24.5976 3.29454 24.5976 3.1879 24.5976 3.11427C24.5976 3.07745 24.5976 3.04889 24.5976 3.02953C24.5976 3.01984 24.5976 3.01247 24.5976 3.00751C24.5976 3.00503 24.5976 3.00315 24.5976 3.0019C24.5976 3.00127 24.5976 3.0008 24.5976 3.00048C24.5976 3.00033 24.5976 3.00021 24.5976 3.00013C24.5976 3.00009 24.5976 3.00006 24.5976 3.00004C24.5976 3.00002 24.5976 3.00001 25.5976 3Z" fill="black"/>
</g>
<defs>
<clipPath id="clip0">
<rect width="31.2" height="31.2" fill="white" transform="translate(0.898438 0.400391)"/>
</clipPath>
</defs>
</svg>
