<svg width="33" height="32" viewBox="0 0 33 32" fill="none" xmlns="http://www.w3.org/2000/svg">
<path d="M21.6969 22.5H11.2969" stroke="black" stroke-width="2" stroke-linecap="round" stroke-linejoin="round"/>
<path d="M21.6969 17.3008H11.2969" stroke="black" stroke-width="2" stroke-linecap="round" stroke-linejoin="round"/>
<path d="M13.8969 12.1006H12.5969H11.2969" stroke="black" stroke-width="2" stroke-linecap="round" stroke-linejoin="round"/>
<path d="M13.8977 3H8.69766C8.00809 3 7.34677 3.27393 6.85918 3.76152C6.37158 4.24912 6.09766 4.91044 6.09766 5.6V26.4C6.09766 27.0896 6.37158 27.7509 6.85918 28.2385C7.34677 28.7261 8.00809 29 8.69766 29H24.2977C24.9872 29 25.6485 28.7261 26.1361 28.2385C26.6237 27.7509 26.8977 27.0896 26.8977 26.4V16M17.7977 3L26.8977 12.1H17.7977V3Z" stroke="black" stroke-width="2" stroke-linecap="round" stroke-linejoin="round"/>
</svg>
