<svg width="16" height="16" viewBox="0 0 16 16" fill="none" xmlns="http://www.w3.org/2000/svg">
<path d="M7.99967 7.33333C9.47243 7.33333 10.6663 6.13943 10.6663 4.66667C10.6663 3.19391 9.47243 2 7.99967 2C6.52692 2 5.33301 3.19391 5.33301 4.66667C5.33301 6.13943 6.52692 7.33333 7.99967 7.33333Z" stroke="#AAAAAA" stroke-linecap="round" stroke-linejoin="round"/>
<path d="M10.9998 14.095C11.9252 13.9285 12.6588 13.6746 12.9998 13.3336C13.0477 12.9023 12.9998 12.2225 12.9998 12.2225C12.9998 11.6331 12.7189 11.0679 12.2188 10.6511C10.6395 9.33504 5.36017 9.33504 3.78087 10.6511C3.28077 11.0679 2.99982 11.6331 2.99982 12.2225C2.99982 12.2225 2.9519 12.9023 2.99982 13.3336C3.34086 13.6746 4.07447 13.9285 4.99982 14.095" stroke="#AAAAAA" stroke-linecap="round" stroke-linejoin="round"/>
</svg>
