<svg width="18" height="30" viewBox="0 0 18 30" fill="none" xmlns="http://www.w3.org/2000/svg">
<path fill-rule="evenodd" clip-rule="evenodd" d="M0.72927 15.7584C0.804477 16.022 0.94615 16.2707 1.15429 16.4783C1.17588 16.4998 1.19792 16.5206 1.22037 16.5407L14.1348 29.4188C14.7866 30.0687 15.8434 30.0687 16.4952 29.4188C17.1469 28.7688 17.1469 27.7151 16.4952 27.0651L4.69653 15.2997L17.1903 2.84116C17.8421 2.19121 17.8421 1.13742 17.1903 0.487467C16.5385 -0.162488 15.4817 -0.162489 14.83 0.487466L1.24231 14.0368C1.21175 14.0632 1.18193 14.0908 1.15291 14.1198C0.707985 14.5634 0.566772 15.1953 0.72927 15.7584Z" fill="#F7F7F7"/>
</svg>
