<svg width="684" height="13" viewBox="0 0 684 13" fill="none" xmlns="http://www.w3.org/2000/svg">
<path d="M1001 6.31994C1001 3.33331 997.526 0.902344 993.22 0.902344C988.913 0.902344 985.44 3.33331 985.44 6.31994V6.66722C985.44 9.65385 981.968 12.0848 977.661 12.0848C973.355 12.0848 969.882 9.65385 969.882 6.66722V6.31994C969.882 3.33331 966.409 0.902344 962.103 0.902344C957.797 0.902344 954.324 3.33331 954.324 6.31994V6.66722C954.324 9.65385 950.851 12.0848 946.545 12.0848C942.238 12.0848 938.766 9.65385 938.766 6.66722V6.31994C938.766 3.33331 935.293 0.902344 930.987 0.902344C926.68 0.902344 923.207 3.33331 923.207 6.31994V6.66722C923.207 9.65385 919.735 12.0848 915.428 12.0848C911.122 12.0848 907.649 9.65385 907.649 6.66722V6.31994C907.649 3.33331 904.176 0.902344 899.87 0.902344C895.564 0.902344 892.091 3.33331 892.091 6.31994V6.66722C892.091 9.65385 888.618 12.0848 884.312 12.0848C880.005 12.0848 876.533 9.65385 876.533 6.66722V6.31994C876.533 3.33331 873.06 0.902344 868.753 0.902344C864.447 0.902344 860.974 3.33331 860.974 6.31994V6.66722C860.974 9.65385 857.502 12.0848 853.195 12.0848C848.889 12.0848 845.416 9.65385 845.416 6.66722V6.31994C845.416 3.33331 841.943 0.902344 837.637 0.902344C833.331 0.902344 829.858 3.33331 829.858 6.31994V6.66722C829.858 9.65385 826.385 12.0848 822.079 12.0848C817.772 12.0848 814.3 9.65385 814.3 6.66722V6.31994C814.3 3.33331 810.827 0.902344 806.52 0.902344C802.214 0.902344 798.741 3.33331 798.741 6.31994V6.66722C798.741 9.65385 795.269 12.0848 790.962 12.0848C786.656 12.0848 783.183 9.65385 783.183 6.66722V6.31994C783.183 3.33331 779.71 0.902344 775.404 0.902344C771.098 0.902344 767.625 3.33331 767.625 6.31994V6.66722C767.625 9.65385 764.152 12.0848 759.846 12.0848C755.539 12.0848 752.067 9.65385 752.067 6.66722V6.31994C752.067 3.33331 748.594 0.902344 744.287 0.902344C739.981 0.902344 736.508 3.33331 736.508 6.31994V6.66722C736.508 9.65385 733.036 12.0848 728.729 12.0848C724.423 12.0848 720.95 9.65385 720.95 6.66722V6.31994C720.95 3.33331 717.477 0.902344 713.171 0.902344C708.865 0.902344 705.392 3.33331 705.392 6.31994V6.66722C705.392 9.65385 701.919 12.0848 697.613 12.0848C693.306 12.0848 689.834 9.65385 689.834 6.66722V6.31994C689.834 3.33331 686.361 0.902344 682.054 0.902344C677.748 0.902344 674.275 3.33331 674.275 6.31994V6.66722C674.275 9.65385 670.803 12.0848 666.496 12.0848C662.19 12.0848 658.717 9.65385 658.717 6.66722V6.31994C658.717 3.33331 655.244 0.902344 650.938 0.902344C646.632 0.902344 643.159 3.33331 643.159 6.31994V6.66722C643.159 9.65385 639.686 12.0848 635.38 12.0848C631.073 12.0848 627.601 9.65385 627.601 6.66722V6.31994C627.601 3.33331 624.128 0.902344 619.821 0.902344C615.515 0.902344 612.042 3.33331 612.042 6.31994V6.66722C612.042 9.65385 608.569 12.0848 604.263 12.0848C599.957 12.0848 596.484 9.65385 596.484 6.66722V6.31994C596.484 3.33331 593.011 0.902344 588.705 0.902344C584.399 0.902344 580.926 3.33331 580.926 6.31994V6.66722C580.926 9.65385 577.453 12.0848 573.147 12.0848C568.84 12.0848 565.368 9.65385 565.368 6.66722V6.31994C565.368 3.33331 561.895 0.902344 557.588 0.902344C553.282 0.902344 549.809 3.33331 549.809 6.31994V6.66722C549.809 9.65385 546.336 12.0848 542.03 12.0848C537.724 12.0848 534.251 9.65385 534.251 6.66722V6.31994C534.251 3.33331 530.778 0.902344 526.472 0.902344C522.166 0.902344 518.693 3.33331 518.693 6.31994V6.66722C518.693 9.65385 515.22 12.0848 510.914 12.0848C506.607 12.0848 503.135 9.65385 503.135 6.66722V6.31994C503.135 3.33331 499.662 0.902344 495.355 0.902344C491.049 0.902344 487.576 3.33331 487.576 6.31994V6.66722C487.576 9.65385 484.103 12.0848 479.797 12.0848C475.491 12.0848 472.018 9.65385 472.018 6.66722V6.31994C472.018 3.33331 468.545 0.902344 464.239 0.902344C459.933 0.902344 456.46 3.33331 456.46 6.31994V6.66722C456.46 9.65385 452.987 12.0848 448.681 12.0848C444.374 12.0848 440.901 9.65385 440.901 6.66722V6.31994C440.901 3.33331 437.429 0.902344 433.122 0.902344C428.816 0.902344 425.343 3.33331 425.343 6.31994V6.66722C425.343 9.65385 421.87 12.0848 417.564 12.0848C413.258 12.0848 409.785 9.65385 409.785 6.66722V6.31994C409.785 3.33331 406.312 0.902344 402.006 0.902344C397.7 0.902344 394.227 3.33331 394.227 6.31994V6.66722C394.227 9.65385 390.754 12.0848 386.448 12.0848C382.141 12.0848 378.668 9.65385 378.668 6.66722V6.31994C378.668 3.33331 375.196 0.902344 370.889 0.902344C366.583 0.902344 363.11 3.33331 363.11 6.31994V6.66722C363.11 9.65385 359.637 12.0848 355.331 12.0848C351.025 12.0848 347.552 9.65385 347.552 6.66722V6.31994C347.552 3.33331 344.079 0.902344 339.773 0.902344C335.466 0.902344 331.994 3.33331 331.994 6.31994V6.66722C331.994 9.65385 328.521 12.0848 324.215 12.0848C319.908 12.0848 316.435 9.65385 316.435 6.66722V6.31994C316.435 3.33331 312.963 0.902344 308.656 0.902344C304.35 0.902344 300.877 3.33331 300.877 6.31994V6.66722C300.877 9.65385 297.404 12.0848 293.098 12.0848C288.792 12.0848 285.319 9.65385 285.319 6.66722V6.31994C285.319 3.33331 281.846 0.902344 277.54 0.902344C273.233 0.902344 269.761 3.33331 269.761 6.31994V6.66722C269.761 9.65385 266.288 12.0848 261.982 12.0848C257.675 12.0848 254.202 9.65385 254.202 6.66722V6.31994C254.202 3.33331 250.73 0.902344 246.423 0.902344C242.117 0.902344 238.644 3.33331 238.644 6.31994V6.66722C238.644 9.65385 235.171 12.0848 230.865 12.0848C226.559 12.0848 223.086 9.65385 223.086 6.66722V6.31994C223.086 3.33331 219.613 0.902344 215.307 0.902344C211 0.902344 207.528 3.33331 207.528 6.31994V6.66722C207.528 9.65385 204.055 12.0848 199.748 12.0848C195.442 12.0848 191.969 9.65385 191.969 6.66722V6.31994C191.969 3.33331 188.497 0.902344 184.19 0.902344C179.884 0.902344 176.411 3.33331 176.411 6.31994V6.66722C176.411 9.65385 172.938 12.0848 168.632 12.0848C164.326 12.0848 160.853 9.65385 160.853 6.66722V6.31994C160.853 3.33331 157.38 0.902344 153.074 0.902344C148.767 0.902344 145.295 3.33331 145.295 6.31994V6.66722C145.295 9.65385 141.822 12.0848 137.515 12.0848C133.209 12.0848 129.736 9.65385 129.736 6.66722V6.31994C129.736 3.33331 126.264 0.902344 121.957 0.902344C117.651 0.902344 114.178 3.33331 114.178 6.31994V6.66722C114.178 9.65385 110.705 12.0848 106.399 12.0848C102.093 12.0848 98.6198 9.65385 98.6198 6.66722V6.31994C98.6198 3.33331 95.147 0.902344 90.8407 0.902344C86.5344 0.902344 83.0616 3.33331 83.0616 6.31994V6.66722C83.0616 9.65385 79.5887 12.0848 75.2824 12.0848C70.9761 12.0848 67.5033 9.65385 67.5033 6.66722V6.31994C67.5033 3.33331 64.0305 0.902344 59.7242 0.902344C55.4179 0.902344 47.7082 3.33331 47.7082 6.31994V6.66722C47.7082 9.65385 44.2354 12.0848 39.9291 12.0848C35.6228 12.0848 32.15 9.65385 32.15 6.66722V6.31994C32.15 3.33331 28.6771 0.902344 24.3708 0.902344C20.0645 0.902344 16.4528 3.33331 16.4528 6.31994V6.66722C16.4528 9.65385 12.98 12.0848 8.67366 12.0848C4.36736 12.0848 0.894531 9.65385 0.894531 6.66722" stroke="#F2F2F2" stroke-miterlimit="10"/>
</svg>
