<svg width="11" height="17" viewBox="0 0 11 17" fill="none" xmlns="http://www.w3.org/2000/svg">
<path d="M9.75112 0.00353713L7.54662 0C5.06995 0 3.46941 1.64211 3.46941 4.18372V6.1127H1.25289C1.06135 6.1127 0.90625 6.26798 0.90625 6.45951V9.25438C0.90625 9.44592 1.06153 9.60102 1.25289 9.60102H3.46941V16.6534C3.46941 16.8449 3.62451 17 3.81604 17H6.70798C6.89951 17 7.05461 16.8447 7.05461 16.6534V9.60102H9.64624C9.83778 9.60102 9.99288 9.44592 9.99288 9.25438L9.99394 6.45951C9.99394 6.36755 9.95733 6.27948 9.89243 6.21439C9.82752 6.14931 9.73909 6.1127 9.64713 6.1127H7.05461V4.47748C7.05461 3.69153 7.2419 3.29254 8.26571 3.29254L9.75076 3.29201C9.94212 3.29201 10.0972 3.13673 10.0972 2.94537V0.350176C10.0972 0.158994 9.9423 0.00389085 9.75112 0.00353713Z" fill="#767676"/>
</svg>
