<svg width="16" height="16" viewBox="0 0 16 16" fill="none" xmlns="http://www.w3.org/2000/svg">
<g clip-path="url(#clip0_2783_16817)">
<path fill-rule="evenodd" clip-rule="evenodd" d="M9.80195 8.44922C9.80195 11.3079 7.88529 13.3332 4.99997 13.3332C2.23732 13.3332 0 11.0959 0 8.33322C0 5.57057 2.23732 3.33325 4.99997 3.33325C6.35063 3.33325 7.47596 3.82458 8.34996 4.64258L6.99263 5.94524C6.62396 5.59057 5.97597 5.17458 5.00064 5.17458C3.29532 5.17458 1.90399 6.58723 1.90399 8.33322C1.90399 10.0792 3.29598 11.4912 5.00064 11.4912C6.9793 11.4912 7.72263 10.0659 7.83862 9.33589H5.00064V7.61723H9.72062C9.76795 7.86923 9.80195 8.12189 9.80195 8.44922ZM13.0907 6.33325H14.5487V7.78457H16V9.24256H14.5487V10.6939H13.0907V9.24256H11.6394V7.78457H13.0907V6.33325Z" fill="#767676"/>
</g>
<defs>
<clipPath id="clip0_2783_16817">
<rect width="16" height="16" fill="white"/>
</clipPath>
</defs>
</svg>
