<svg width="17" height="17" viewBox="0 0 17 17" fill="none" xmlns="http://www.w3.org/2000/svg">
<path d="M14.5098 0H2.49023C1.11723 0 0 1.11723 0 2.49023V14.5098C0 15.8828 1.11723 17 2.49023 17H14.5098C15.8828 17 17 15.8828 17 14.5098V2.49023C17 1.11723 15.8828 0 14.5098 0ZM8.5332 12.9492C6.06152 12.9492 4.05078 10.9385 4.05078 8.4668C4.05078 5.99511 6.06152 3.98438 8.5332 3.98438C11.0049 3.98438 13.0156 5.99511 13.0156 8.4668C13.0156 10.9385 11.0049 12.9492 8.5332 12.9492ZM13.5137 4.98047C12.6898 4.98047 12.0195 4.31018 12.0195 3.48633C12.0195 2.66248 12.6898 1.99219 13.5137 1.99219C14.3375 1.99219 15.0078 2.66248 15.0078 3.48633C15.0078 4.31018 14.3375 4.98047 13.5137 4.98047Z" fill="#767676"/>
<path d="M13.5137 2.98828C13.2388 2.98828 13.0156 3.21149 13.0156 3.48633C13.0156 3.76116 13.2388 3.98438 13.5137 3.98438C13.7885 3.98438 14.0117 3.76116 14.0117 3.48633C14.0117 3.21149 13.7885 2.98828 13.5137 2.98828Z" fill="#767676"/>
<path d="M8.5332 4.98047C6.61105 4.98047 5.04688 6.54465 5.04688 8.4668C5.04688 10.3889 6.61105 11.9531 8.5332 11.9531C10.4554 11.9531 12.0195 10.3889 12.0195 8.4668C12.0195 6.54465 10.4554 4.98047 8.5332 4.98047Z" fill="#767676"/>
</svg>
