<svg width="17" height="17" viewBox="0 0 17 17" fill="none" xmlns="http://www.w3.org/2000/svg">
<path d="M0.552038 16.2641H2.76207C3.06696 16.2641 3.3141 16.0169 3.3141 15.712V6.05204C3.3141 5.74711 3.06696 5.5 2.76207 5.5H0.552038C0.24711 5.5 0 5.74711 0 6.05204V15.712C0 16.0169 0.24711 16.2641 0.552038 16.2641Z" fill="#767676"/>
<path d="M0.552038 3.80292H2.76207C3.06696 3.80292 3.3141 3.55578 3.3141 3.25088V1.28837C3.3141 0.983469 3.06696 0.736328 2.76207 0.736328H0.552038C0.24711 0.736328 0 0.983469 0 1.28837V3.25088C0 3.55578 0.24711 3.80292 0.552038 3.80292Z" fill="#767676"/>
<path d="M16.1682 6.62033C15.8577 6.21154 15.3997 5.87537 14.7943 5.61187C14.1888 5.34855 13.5204 5.2168 12.7892 5.2168C11.3047 5.2168 10.0469 5.78332 9.01567 6.91658C8.81048 7.14207 8.66129 7.09277 8.66129 6.78784V6.05193C8.66129 5.747 8.41412 5.49989 8.10922 5.49989H6.13505C5.83012 5.49989 5.58301 5.747 5.58301 6.05193V15.7119C5.58301 16.0168 5.83015 16.264 6.13505 16.264H8.34507C8.65 16.264 8.89711 16.0168 8.89711 15.7119V12.3524C8.89711 10.9529 8.98162 9.99354 9.15065 9.47462C9.31961 8.95571 9.63226 8.53902 10.0883 8.2245C10.5444 7.90997 11.0593 7.75263 11.6334 7.75263C12.0815 7.75263 12.4649 7.86273 12.7834 8.08297C13.1018 8.30317 13.3318 8.61163 13.4734 9.00879C13.615 9.40589 13.6857 10.2806 13.6857 11.633V15.7119C13.6857 16.0168 13.9328 16.264 14.2377 16.264H16.4477C16.7526 16.264 16.9997 16.0168 16.9997 15.7119V10.2413C16.9997 9.2742 16.9388 8.53112 16.817 8.0122C16.6953 7.49328 16.479 7.02933 16.1682 6.62033Z" fill="#767676"/>
</svg>
