<svg width="14" height="16" viewBox="0 0 14 16" fill="none" xmlns="http://www.w3.org/2000/svg">
<path d="M7 15.3333C7 15.3333 13 11.3333 13 6.66667C13 5.07537 12.3679 3.54925 11.2426 2.42403C10.1174 1.29881 8.5913 0.666672 7 0.666672C5.4087 0.666672 3.88258 1.29881 2.75736 2.42403C1.63214 3.54925 1 5.07537 1 6.66667C1 9.52751 3.25489 12.1378 5 13.7296M7 8.66667C8.10457 8.66667 9 7.77124 9 6.66667C9 5.5621 8.10457 4.66667 7 4.66667C5.89543 4.66667 5 5.5621 5 6.66667C5 7.07558 5.12272 7.45583 5.33333 7.7726" stroke="#AAAAAA" stroke-linecap="round" stroke-linejoin="round"/>
</svg>
