<svg width="16" height="16" viewBox="0 0 16 16" fill="none" xmlns="http://www.w3.org/2000/svg">
<path d="M13.3346 14.6673C13.7028 14.6673 14.0013 14.3688 14.0013 14.0007C14.0013 13.6325 13.7028 13.334 13.3346 13.334C12.9664 13.334 12.668 13.6325 12.668 14.0007C12.668 14.3688 12.9664 14.6673 13.3346 14.6673Z" stroke="#CCCCCC" stroke-linecap="round" stroke-linejoin="round"/>
<path d="M5.9987 14.6673C6.36689 14.6673 6.66536 14.3688 6.66536 14.0007C6.66536 13.6325 6.36689 13.334 5.9987 13.334C5.63051 13.334 5.33203 13.6325 5.33203 14.0007C5.33203 14.3688 5.63051 14.6673 5.9987 14.6673Z" stroke="#CCCCCC" stroke-linecap="round" stroke-linejoin="round"/>
<path d="M0.667969 0.666016H3.33464L5.1213 9.59268C5.18226 9.89961 5.34924 10.1753 5.593 10.3715C5.83676 10.5678 6.14177 10.672 6.45464 10.666H12.9346C13.2475 10.672 13.5525 10.5678 13.7963 10.3715C14.04 10.1753 14.207 9.89961 14.268 9.59268L15.3346 3.99935H6.0013" stroke="#CCCCCC" stroke-linecap="round" stroke-linejoin="round"/>
</svg>
